<?xml version="1.0" encoding="UTF-8" standalone="no"?>
<!-- Created with Inkscape (http://www.inkscape.org/) -->

<svg
   xmlns:dc="http://purl.org/dc/elements/1.1/"
   xmlns:cc="http://creativecommons.org/ns#"
   xmlns:rdf="http://www.w3.org/1999/02/22-rdf-syntax-ns#"
   xmlns:svg="http://www.w3.org/2000/svg"
   xmlns="http://www.w3.org/2000/svg"
   xmlns:sodipodi="http://sodipodi.sourceforge.net/DTD/sodipodi-0.dtd"
   xmlns:inkscape="http://www.inkscape.org/namespaces/inkscape"
   width="112.88889mm"
   height="112.88889mm"
   viewBox="0 0 400.00002 400.00001"
   id="svg2"
   version="1.1"
   inkscape:version="0.91 r13725"
   sodipodi:docname="gears.svg">
  <defs
     id="defs4" />
  <sodipodi:namedview
     id="base"
     pagecolor="#ffffff"
     bordercolor="#666666"
     borderopacity="1.0"
     inkscape:pageopacity="0.0"
     inkscape:pageshadow="2"
     inkscape:zoom="1.7675635"
     inkscape:cx="252.20201"
     inkscape:cy="146.662"
     inkscape:document-units="px"
     inkscape:current-layer="layer1"
     showgrid="false"
     inkscape:window-width="1634"
     inkscape:window-height="990"
     inkscape:window-x="280"
     inkscape:window-y="31"
     inkscape:window-maximized="1"
     fit-margin-top="0"
     fit-margin-left="0"
     fit-margin-right="0"
     fit-margin-bottom="0" />
  <metadata
     id="metadata7">
    <rdf:RDF>
      <cc:Work
         rdf:about="">
        <dc:format>image/svg+xml</dc:format>
        <dc:type
           rdf:resource="http://purl.org/dc/dcmitype/StillImage" />
        <dc:title />
      </cc:Work>
    </rdf:RDF>
  </metadata>
  <g
     inkscape:label="Calque 1"
     inkscape:groupmode="layer"
     id="layer1"
     transform="translate(-38.887294,-577.18823)">
    <g
       style="font-style:normal;font-variant:normal;font-weight:normal;font-stretch:normal;font-size:15px;line-height:125%;font-family:'DejaVu Sans';-inkscape-font-specification:'DejaVu Sans, Normal';text-align:start;letter-spacing:0px;word-spacing:0px;writing-mode:lr-tb;text-anchor:start;fill:#000000;fill-opacity:1;stroke:none;stroke-width:1px;stroke-linecap:butt;stroke-linejoin:miter;stroke-opacity:1"
       id="flowRoot4248" />
    <g
       id="g4221">
      <g
         id="g4209">
        <path
           inkscape:connector-curvature="0"
           id="path4136"
           d="M 416.35106,777.18823 A 177.46376,177.46376 0 0 1 238.88729,954.652 177.46376,177.46376 0 0 1 61.423532,777.18823 177.46376,177.46376 0 0 1 238.88729,599.72446 177.46376,177.46376 0 0 1 416.35106,777.18823 Z"
           style="opacity:1;fill:#c26100;fill-opacity:0.69411767;fill-rule:nonzero;stroke:none;stroke-width:2;stroke-linecap:round;stroke-linejoin:miter;stroke-miterlimit:0;stroke-dasharray:none;stroke-dashoffset:0;stroke-opacity:1" />
        <path
           inkscape:connector-curvature="0"
           id="circle4138"
           d="M 438.00243,777.18823 A 199.11513,199.11513 0 0 1 238.88729,976.30336 199.11513,199.11513 0 0 1 39.772166,777.18823 199.11513,199.11513 0 0 1 238.88729,578.0731 199.11513,199.11513 0 0 1 438.00243,777.18823 Z"
           style="opacity:1;fill:none;fill-opacity:1;fill-rule:nonzero;stroke:#c66c12;stroke-width:1.7697444;stroke-linecap:round;stroke-linejoin:miter;stroke-miterlimit:0;stroke-dasharray:none;stroke-dashoffset:0;stroke-opacity:0.69411767" />
      </g>
      <g
         id="g4213">
        <g
           id="g4274">
          <path
             style="opacity:1;fill:#ffffff;fill-opacity:1;fill-rule:nonzero;stroke:none;stroke-width:2;stroke-linecap:round;stroke-linejoin:miter;stroke-miterlimit:0;stroke-dasharray:none;stroke-dashoffset:0;stroke-opacity:0.69411765"
             d="m 306.54777,722.2866 a 67.660479,67.660479 0 0 1 -67.66048,67.66047 67.660479,67.660479 0 0 1 -67.66047,-67.66047 67.660479,67.660479 0 0 1 67.66047,-67.66048 67.660479,67.660479 0 0 1 67.66048,67.66048 z"
             id="path4160"
             inkscape:connector-curvature="0" />
        </g>
        <g
           id="g4269"
           style="fill:#c26100;fill-opacity:0.69411767">
          <path
             inkscape:connector-curvature="0"
             id="path4133"
             d="m 236.95711,722.76307 a 21.178254,21.178254 0 0 0 -4.31231,0.46796 l -0.97674,3.89343 a 17.648545,17.648545 0 0 0 -3.43264,1.4993 l -3.51785,-1.93362 a 21.178254,21.178254 0 0 0 -5.45836,5.64947 l 2.06322,3.4445 a 17.648545,17.648545 0 0 0 -1.36666,3.49413 l -3.8551,1.12041 a 21.178254,21.178254 0 0 0 -0.32181,3.54267 21.178254,21.178254 0 0 0 0.46824,4.31259 l 3.89316,0.97646 a 17.648545,17.648545 0 0 0 1.49957,3.43291 l -1.93362,3.51758 a 21.178254,21.178254 0 0 0 5.64947,5.45836 l 3.4445,-2.06295 a 17.648545,17.648545 0 0 0 3.49413,1.36639 l 1.12013,3.8551 a 21.178254,21.178254 0 0 0 3.54267,0.32181 21.178254,21.178254 0 0 0 4.31259,-0.46823 l 0.97674,-3.89344 a 17.648545,17.648545 0 0 0 3.43264,-1.4993 l 3.51758,1.93362 a 21.178254,21.178254 0 0 0 5.45836,-5.64946 l -2.06295,-3.4445 a 17.648545,17.648545 0 0 0 1.36666,-3.49414 l 3.85483,-1.12041 a 21.178254,21.178254 0 0 0 0.32181,-3.54239 21.178254,21.178254 0 0 0 -0.46824,-4.31286 l -3.89344,-0.97646 a 17.648545,17.648545 0 0 0 -1.49929,-3.43237 l 1.93389,-3.51785 a 21.178254,21.178254 0 0 0 -5.64946,-5.45837 l -3.4445,2.06295 a 17.648545,17.648545 0 0 0 -3.49442,-1.36638 l -1.12013,-3.85538 a 21.178254,21.178254 0 0 0 -3.54267,-0.32153 z m 0,10.58912 a 10.589127,10.589127 0 0 1 10.58913,10.58913 10.589127,10.589127 0 0 1 -10.58913,10.58913 10.589127,10.589127 0 0 1 -10.58912,-10.58913 10.589127,10.589127 0 0 1 10.58912,-10.58913 z"
             style="opacity:1;fill:#c26100;fill-opacity:0.69411767;fill-rule:nonzero;stroke:none;stroke-width:15;stroke-linecap:round;stroke-linejoin:miter;stroke-miterlimit:4;stroke-dasharray:none;stroke-dashoffset:0;stroke-opacity:0.69411765" />
          <path
             style="opacity:1;fill:#c26100;fill-opacity:0.69411767;fill-rule:nonzero;stroke:none;stroke-width:15;stroke-linecap:round;stroke-linejoin:miter;stroke-miterlimit:4;stroke-dasharray:none;stroke-dashoffset:0;stroke-opacity:0.69411765"
             d="m 260.66114,679.45362 a 25.413904,25.413904 0 0 0 -5.17478,0.56155 l -1.17208,4.67213 a 21.178254,21.178254 0 0 0 -4.11917,1.79915 l -4.22142,-2.32034 a 25.413904,25.413904 0 0 0 -6.55004,6.77936 l 2.47587,4.1334 a 21.178254,21.178254 0 0 0 -1.63999,4.19296 l -4.62612,1.34449 a 25.413904,25.413904 0 0 0 -0.38618,4.2512 25.413904,25.413904 0 0 0 0.56189,5.17511 l 4.67179,1.17175 a 21.178254,21.178254 0 0 0 1.79949,4.1195 l -2.32034,4.22109 a 25.413904,25.413904 0 0 0 6.77936,6.55004 l 4.13339,-2.47554 a 21.178254,21.178254 0 0 0 4.19297,1.63966 l 1.34415,4.62613 a 25.413904,25.413904 0 0 0 4.25121,0.38617 25.413904,25.413904 0 0 0 5.1751,-0.56189 l 1.17209,-4.67212 a 21.178254,21.178254 0 0 0 4.11917,-1.79916 l 4.22109,2.32035 a 25.413904,25.413904 0 0 0 6.55004,-6.77936 l -2.47554,-4.1334 a 21.178254,21.178254 0 0 0 1.63999,-4.19297 l 4.62579,-1.34448 a 25.413904,25.413904 0 0 0 0.38617,-4.25088 25.413904,25.413904 0 0 0 -0.56188,-5.17543 l -4.67212,-1.17175 a 21.178254,21.178254 0 0 0 -1.79916,-4.11884 l 2.32067,-4.22143 a 25.413904,25.413904 0 0 0 -6.77936,-6.55003 l -4.1334,2.47554 a 21.178254,21.178254 0 0 0 -4.19329,-1.63966 l -1.34416,-4.62646 a 25.413904,25.413904 0 0 0 -4.2512,-0.38584 z m 0,12.70695 a 12.706952,12.706952 0 0 1 12.70695,12.70695 12.706952,12.706952 0 0 1 -12.70695,12.70696 12.706952,12.706952 0 0 1 -12.70695,-12.70696 12.706952,12.706952 0 0 1 12.70695,-12.70695 z"
             id="path4144"
             inkscape:connector-curvature="0" />
          <path
             inkscape:connector-curvature="0"
             id="path4146"
             d="m 206.60871,710.45347 a 14.909152,14.909152 0 0 0 -3.0358,0.32944 l -0.68761,2.74092 a 12.424294,12.424294 0 0 0 -2.41653,1.05548 l -2.47651,-1.36123 a 14.909152,14.909152 0 0 0 -3.8426,3.97713 l 1.45248,2.42487 a 12.424294,12.424294 0 0 0 -0.96211,2.45982 l -2.71393,0.78874 a 14.909152,14.909152 0 0 0 -0.22655,2.49399 14.909152,14.909152 0 0 0 0.32964,3.03599 l 2.74072,0.68741 a 12.424294,12.424294 0 0 0 1.05567,2.41672 l -1.36123,2.47632 a 14.909152,14.909152 0 0 0 3.97713,3.8426 l 2.42487,-1.45229 a 12.424294,12.424294 0 0 0 2.45982,0.96192 l 0.78855,2.71393 a 14.909152,14.909152 0 0 0 2.49399,0.22655 14.909152,14.909152 0 0 0 3.03599,-0.32963 l 0.68761,-2.74092 a 12.424294,12.424294 0 0 0 2.41652,-1.05548 l 2.47632,1.36124 a 14.909152,14.909152 0 0 0 3.8426,-3.97714 l -1.45229,-2.42487 a 12.424294,12.424294 0 0 0 0.96211,-2.45982 l 2.71374,-0.78875 a 14.909152,14.909152 0 0 0 0.22655,-2.49378 14.909152,14.909152 0 0 0 -0.32964,-3.03619 l -2.74091,-0.68741 a 12.424294,12.424294 0 0 0 -1.05548,-2.41634 l 1.36143,-2.47651 a 14.909152,14.909152 0 0 0 -3.97714,-3.8426 l -2.42487,1.45229 a 12.424294,12.424294 0 0 0 -2.46001,-0.96192 l -0.78855,-2.71412 a 14.909152,14.909152 0 0 0 -2.49398,-0.22636 z m 0,7.45458 a 7.4545762,7.4545762 0 0 1 7.45457,7.45458 7.4545762,7.4545762 0 0 1 -7.45457,7.45457 7.4545762,7.4545762 0 0 1 -7.45458,-7.45457 7.4545762,7.4545762 0 0 1 7.45458,-7.45458 z"
             style="opacity:1;fill:#c26100;fill-opacity:0.69411767;fill-rule:nonzero;stroke:none;stroke-width:15;stroke-linecap:round;stroke-linejoin:miter;stroke-miterlimit:4;stroke-dasharray:none;stroke-dashoffset:0;stroke-opacity:0.69411765" />
        </g>
      </g>
    </g>
    <g
       id="flowRoot4256"
       style="font-style:normal;font-variant:normal;font-weight:normal;font-stretch:normal;font-size:50px;line-height:125%;font-family:'DejaVu Sans';-inkscape-font-specification:'DejaVu Sans, Normal';text-align:start;letter-spacing:0px;word-spacing:0px;writing-mode:lr-tb;text-anchor:start;fill:#ffffff;fill-opacity:1;stroke:none;stroke-width:1px;stroke-linecap:butt;stroke-linejoin:miter;stroke-opacity:1"
       transform="matrix(0.78127909,0,0,0.78127909,-21.617399,565.79905)">
      <path
         inkscape:connector-curvature="0"
         id="path4155"
         d="m 145.32324,332.49175 4.49219,0 0,27.34375 -4.49219,0 0,-27.34375 z m 0,-10.64453 4.49219,0 0,5.68848 -4.49219,0 0,-5.68848 z" />
      <path
         inkscape:connector-curvature="0"
         id="path4157"
         d="m 181.91992,343.3316 0,16.5039 -4.49219,0 0,-16.35742 q 0,-3.88183 -1.51367,-5.81054 -1.51367,-1.92871 -4.54101,-1.92871 -3.6377,0 -5.73731,2.31933 -2.09961,2.31934 -2.09961,6.32324 l 0,15.4541 -4.5166,0 0,-27.34375 4.5166,0 0,4.24805 q 1.61133,-2.46582 3.78418,-3.68652 2.19727,-1.2207 5.05371,-1.2207 4.71192,0 7.12891,2.92968 2.41699,2.90528 2.41699,8.56934 z" />
      <path
         inkscape:connector-curvature="0"
         id="path4159"
         d="m 195.37207,324.72808 0,7.76367 9.25293,0 0,3.49122 -9.25293,0 0,14.84375 q 0,3.34472 0.90332,4.29687 0.92773,0.95215 3.73535,0.95215 l 4.61426,0 0,3.75976 -4.61426,0 q -5.20019,0 -7.17773,-1.92871 -1.97754,-1.95312 -1.97754,-7.08007 l 0,-14.84375 -3.2959,0 0,-3.49122 3.2959,0 0,-7.76367 4.5166,0 z" />
      <path
         inkscape:connector-curvature="0"
         id="path4161"
         d="m 233.94629,345.04058 0,2.19727 -20.6543,0 q 0.29297,4.63867 2.78321,7.08008 2.51464,2.41699 6.98242,2.41699 2.58789,0 5.00488,-0.63477 2.44141,-0.63476 4.83398,-1.90429 l 0,4.24804 q -2.41699,1.02539 -4.95605,1.5625 -2.53906,0.53711 -5.15137,0.53711 -6.54297,0 -10.37597,-3.80859 -3.8086,-3.80859 -3.8086,-10.30274 0,-6.71386 3.61328,-10.64453 3.6377,-3.95507 9.79004,-3.95507 5.51758,0 8.71582,3.56445 3.22266,3.54004 3.22266,9.64355 z m -4.49219,-1.31836 q -0.0488,-3.68652 -2.07519,-5.88379 -2.00196,-2.19726 -5.32227,-2.19726 -3.75977,0 -6.03027,2.12402 -2.2461,2.12403 -2.58789,5.98145 l 16.01562,-0.0244 z" />
      <path
         inkscape:connector-curvature="0"
         id="path4163"
         d="m 257.16406,336.69097 q -0.75683,-0.43945 -1.66015,-0.63476 -0.87891,-0.21973 -1.95313,-0.21973 -3.80859,0 -5.85937,2.49024 -2.02637,2.46582 -2.02637,7.10449 l 0,14.40429 -4.5166,0 0,-27.34375 4.5166,0 0,4.24805 q 1.41601,-2.49023 3.68652,-3.68652 2.27051,-1.2207 5.51758,-1.2207 0.46387,0 1.02539,0.0732 0.56152,0.0488 1.24512,0.1709 l 0.0244,4.61425 z" />
      <path
         inkscape:connector-curvature="0"
         id="path4165"
         d="m 271.44629,335.64117 q -3.61328,0 -5.71289,2.83203 -2.09961,2.80762 -2.09961,7.71484 0,4.90723 2.07519,7.73926 2.09961,2.80762 5.73731,2.80762 3.58887,0 5.68848,-2.83203 2.0996,-2.83203 2.0996,-7.71485 0,-4.85839 -2.0996,-7.69043 -2.09961,-2.85644 -5.68848,-2.85644 z m 0,-3.80859 q 5.85937,0 9.2041,3.80859 3.34473,3.80859 3.34473,10.54687 0,6.71387 -3.34473,10.54688 -3.34473,3.80859 -9.2041,3.80859 -5.88379,0 -9.22852,-3.80859 -3.32031,-3.83301 -3.32031,-10.54688 0,-6.73828 3.32031,-10.54687 3.34473,-3.80859 9.22852,-3.80859 z" />
      <path
         inkscape:connector-curvature="0"
         id="path4167"
         d="m 295.7627,355.73394 0,14.50196 -4.51661,0 0,-37.74415 4.51661,0 0,4.1504 q 1.41601,-2.44141 3.56445,-3.61329 2.17285,-1.19628 5.17578,-1.19628 4.98047,0 8.08105,3.95507 3.125,3.95508 3.125,10.40039 0,6.44532 -3.125,10.40039 -3.10058,3.95508 -8.08105,3.95508 -3.00293,0 -5.17578,-1.17187 -2.14844,-1.19629 -3.56445,-3.6377 z m 15.2832,-9.5459 q 0,-4.95605 -2.05078,-7.76367 -2.02637,-2.83203 -5.59082,-2.83203 -3.56446,0 -5.61524,2.83203 -2.02636,2.80762 -2.02636,7.76367 0,4.95606 2.02636,7.78809 2.05078,2.80762 5.61524,2.80762 3.56445,0 5.59082,-2.80762 2.05078,-2.83203 2.05078,-7.78809 z" />
      <path
         inkscape:connector-curvature="0"
         id="path4169"
         d="m 346.54395,345.04058 0,2.19727 -20.6543,0 q 0.29297,4.63867 2.7832,7.08008 2.51465,2.41699 6.98242,2.41699 2.58789,0 5.00489,-0.63477 2.4414,-0.63476 4.83398,-1.90429 l 0,4.24804 q -2.41699,1.02539 -4.95605,1.5625 -2.53907,0.53711 -5.15137,0.53711 -6.54297,0 -10.37598,-3.80859 -3.80859,-3.80859 -3.80859,-10.30274 0,-6.71386 3.61328,-10.64453 3.63769,-3.95507 9.79004,-3.95507 5.51758,0 8.71582,3.56445 3.22266,3.54004 3.22266,9.64355 z m -4.49219,-1.31836 q -0.0488,-3.68652 -2.0752,-5.88379 -2.00195,-2.19726 -5.32226,-2.19726 -3.75977,0 -6.03028,2.12402 -2.24609,2.12403 -2.58789,5.98145 l 16.01563,-0.0244 z" />
      <path
         inkscape:connector-curvature="0"
         id="path4171"
         d="m 369.76172,336.69097 q -0.75684,-0.43945 -1.66016,-0.63476 -0.8789,-0.21973 -1.95312,-0.21973 -3.8086,0 -5.85938,2.49024 -2.02636,2.46582 -2.02636,7.10449 l 0,14.40429 -4.51661,0 0,-27.34375 4.51661,0 0,4.24805 q 1.41601,-2.49023 3.68652,-3.68652 2.27051,-1.2207 5.51758,-1.2207 0.46386,0 1.02539,0.0732 0.56152,0.0488 1.24511,0.1709 l 0.0244,4.61425 z" />
      <path
         inkscape:connector-curvature="0"
         id="path4173"
         d="m 386.94922,346.09039 q -5.44434,0 -7.54395,1.24511 -2.09961,1.24512 -2.09961,4.24805 0,2.39258 1.5625,3.8086 1.58692,1.3916 4.29688,1.3916 3.73535,0 5.98144,-2.63672 2.27051,-2.66113 2.27051,-7.05567 l 0,-1.00097 -4.46777,0 z m 8.95996,-1.85547 0,15.60058 -4.49219,0 0,-4.15039 q -1.53808,2.49024 -3.83301,3.68653 -2.29492,1.17187 -5.61523,1.17187 -4.19922,0 -6.68945,-2.34375 -2.46582,-2.36816 -2.46582,-6.32324 0,-4.61426 3.07617,-6.95801 3.10058,-2.34375 9.22851,-2.34375 l 6.29883,0 0,-0.43945 q 0,-3.10059 -2.05078,-4.78516 -2.02637,-1.70898 -5.71289,-1.70898 -2.34375,0 -4.56543,0.56152 -2.22168,0.56153 -4.27246,1.68457 l 0,-4.15039 q 2.46582,-0.95215 4.78516,-1.41601 2.31933,-0.48828 4.5166,-0.48828 5.93261,0 8.8623,3.07617 2.92969,3.07617 2.92969,9.32617 z" />
      <path
         inkscape:connector-curvature="0"
         id="path4175"
         d="m 424.81543,346.18804 q 0,-4.95605 -2.05078,-7.76367 -2.02637,-2.83203 -5.59082,-2.83203 -3.56446,0 -5.61524,2.83203 -2.02636,2.80762 -2.02636,7.76367 0,4.95606 2.02636,7.78809 2.05078,2.80762 5.61524,2.80762 3.56445,0 5.59082,-2.80762 2.05078,-2.83203 2.05078,-7.78809 z m -15.2832,-9.54589 q 1.41601,-2.44141 3.56445,-3.61329 2.17285,-1.19628 5.17578,-1.19628 4.98047,0 8.08106,3.95507 3.125,3.95508 3.125,10.40039 0,6.44532 -3.125,10.40039 -3.10059,3.95508 -8.08106,3.95508 -3.00293,0 -5.17578,-1.17187 -2.14844,-1.19629 -3.56445,-3.6377 l 0,4.10156 -4.51661,0 0,-37.98828 4.51661,0 0,14.79493 z" />
      <path
         inkscape:connector-curvature="0"
         id="path4177"
         d="m 436.9248,332.49175 4.49219,0 0,27.34375 -4.49219,0 0,-27.34375 z m 0,-10.64453 4.49219,0 0,5.68848 -4.49219,0 0,-5.68848 z" />
      <path
         inkscape:connector-curvature="0"
         id="path4179"
         d="m 450.79199,321.84722 4.49219,0 0,37.98828 -4.49219,0 0,-37.98828 z" />
      <path
         inkscape:connector-curvature="0"
         id="path4181"
         d="m 464.65918,332.49175 4.49219,0 0,27.34375 -4.49219,0 0,-27.34375 z m 0,-10.64453 4.49219,0 0,5.68848 -4.49219,0 0,-5.68848 z" />
      <path
         inkscape:connector-curvature="0"
         id="path4183"
         d="m 482.96973,324.72808 0,7.76367 9.25293,0 0,3.49122 -9.25293,0 0,14.84375 q 0,3.34472 0.90332,4.29687 0.92773,0.95215 3.73535,0.95215 l 4.61426,0 0,3.75976 -4.61426,0 q -5.2002,0 -7.17774,-1.92871 -1.97754,-1.95312 -1.97754,-7.08007 l 0,-14.84375 -3.29589,0 0,-3.49122 3.29589,0 0,-7.76367 4.51661,0 z" />
      <path
         inkscape:connector-curvature="0"
         id="path4185"
         d="m 509.53223,362.37457 q -1.9043,4.88281 -3.71094,6.37207 -1.80664,1.48926 -4.83399,1.48926 l -3.58886,0 0,-3.75977 2.63672,0 q 1.85546,0 2.88086,-0.87891 1.02539,-0.8789 2.2705,-4.15039 l 0.80567,-2.05078 -11.05957,-26.9043 4.76074,0 8.54492,21.38672 8.54492,-21.38672 4.76075,0 -12.01172,29.88282 z" />
    </g>
  </g>
</svg>
