<?xml version="1.0" encoding="UTF-8" standalone="no"?>
<!-- Created with Inkscape (http://www.inkscape.org/) -->

<svg
   xmlns:dc="http://purl.org/dc/elements/1.1/"
   xmlns:cc="http://creativecommons.org/ns#"
   xmlns:rdf="http://www.w3.org/1999/02/22-rdf-syntax-ns#"
   xmlns:svg="http://www.w3.org/2000/svg"
   xmlns="http://www.w3.org/2000/svg"
   xmlns:sodipodi="http://sodipodi.sourceforge.net/DTD/sodipodi-0.dtd"
   xmlns:inkscape="http://www.inkscape.org/namespaces/inkscape"
   width="112.88889mm"
   height="112.88889mm"
   viewBox="0 0 399.99999 399.99999"
   id="svg2"
   version="1.1"
   inkscape:version="0.91 r13725"
   sodipodi:docname="innovation.svg">
  <defs
     id="defs4" />
  <sodipodi:namedview
     id="base"
     pagecolor="#ffffff"
     bordercolor="#666666"
     borderopacity="1.0"
     inkscape:pageopacity="0.0"
     inkscape:pageshadow="2"
     inkscape:zoom="1.6347656"
     inkscape:cx="276.93676"
     inkscape:cy="242.18388"
     inkscape:document-units="px"
     inkscape:current-layer="layer1"
     showgrid="false"
     showguides="false"
     fit-margin-top="0"
     fit-margin-left="0"
     fit-margin-right="0"
     fit-margin-bottom="0"
     inkscape:window-width="1634"
     inkscape:window-height="990"
     inkscape:window-x="280"
     inkscape:window-y="31"
     inkscape:window-maximized="1" />
  <metadata
     id="metadata7">
    <rdf:RDF>
      <cc:Work
         rdf:about="">
        <dc:format>image/svg+xml</dc:format>
        <dc:type
           rdf:resource="http://purl.org/dc/dcmitype/StillImage" />
        <dc:title></dc:title>
      </cc:Work>
    </rdf:RDF>
  </metadata>
  <g
     inkscape:label="Calque 1"
     inkscape:groupmode="layer"
     id="layer1"
     transform="translate(-158.91808,-330.03059)">
    <g
       id="g4294"
       transform="matrix(0.88487218,0,0,0.88487218,18.295892,84.046831)">
      <g
         id="g4281">
        <g
           id="g4156">
          <path
             style="opacity:1;fill:#ff0000;fill-opacity:0.69411765;fill-rule:nonzero;stroke:none;stroke-width:2;stroke-linecap:round;stroke-linejoin:miter;stroke-miterlimit:0;stroke-dasharray:none;stroke-dashoffset:0;stroke-opacity:1"
             d="m 585.49242,504.00925 a 200.55299,200.55299 0 0 1 -200.553,200.55299 200.55299,200.55299 0 0 1 -200.55299,-200.55299 200.55299,200.55299 0 0 1 200.55299,-200.553 200.55299,200.55299 0 0 1 200.553,200.553 z"
             id="path4136"
             inkscape:connector-curvature="0" />
          <path
             style="opacity:1;fill:none;fill-opacity:1;fill-rule:nonzero;stroke:#ff0000;stroke-width:2;stroke-linecap:round;stroke-linejoin:miter;stroke-miterlimit:0;stroke-dasharray:none;stroke-dashoffset:0;stroke-opacity:0.69411765"
             d="M 609.96077,504.00925 A 225.02135,225.02135 0 0 1 384.93942,729.03059 225.02135,225.02135 0 0 1 159.91808,504.00925 225.02135,225.02135 0 0 1 384.93942,278.9879 225.02135,225.02135 0 0 1 609.96077,504.00925 Z"
             id="circle4138"
             inkscape:connector-curvature="0" />
        </g>
        <g
           id="g4272">
          <path
             style="opacity:1;fill:#ffffff;fill-opacity:1;fill-rule:nonzero;stroke:none;stroke-width:2;stroke-linecap:round;stroke-linejoin:miter;stroke-miterlimit:0;stroke-dasharray:none;stroke-dashoffset:0;stroke-opacity:0.69411765"
             d="m 461.40298,441.96454 a 76.463562,76.463562 0 0 1 -76.46356,76.46356 76.463562,76.463562 0 0 1 -76.46356,-76.46356 76.463562,76.463562 0 0 1 76.46356,-76.46356 76.463562,76.463562 0 0 1 76.46356,76.46356 z"
             id="path4160"
             inkscape:connector-curvature="0" />
          <g
             transform="matrix(0.11604798,0,0,0.11604798,162.12365,445.1116)"
             id="g4265">
            <path
               style="opacity:1;fill:#ff0000;fill-opacity:0.69411765;fill-rule:nonzero;stroke:none;stroke-width:2;stroke-linecap:round;stroke-linejoin:miter;stroke-miterlimit:0;stroke-dasharray:none;stroke-dashoffset:0;stroke-opacity:0.69411765"
               d="m 1789.4256,314.70392 260.858,0 c 7.6388,0 13.7885,5.75045 13.7885,12.8934 0,7.14294 -6.1497,12.8934 -13.7885,12.8934 l -260.858,0 c -7.6388,0 -13.7885,-5.75046 -13.7885,-12.8934 0,-7.14295 6.1497,-12.8934 13.7885,-12.8934 z"
               id="rect4174"
               inkscape:connector-curvature="0" />
            <path
               style="opacity:1;fill:#ff0000;fill-opacity:0.69411765;fill-rule:nonzero;stroke:none;stroke-width:2;stroke-linecap:round;stroke-linejoin:miter;stroke-miterlimit:0;stroke-dasharray:none;stroke-dashoffset:0;stroke-opacity:0.69411765"
               d="m 1789.4256,361.37296 260.858,0 c 7.6388,0 13.7885,5.75045 13.7885,12.89339 0,7.14295 -6.1497,12.8934 -13.7885,12.8934 l -260.858,0 c -7.6388,0 -13.7885,-5.75045 -13.7885,-12.8934 0,-7.14294 6.1497,-12.89339 13.7885,-12.89339 z"
               id="rect4228"
               inkscape:connector-curvature="0" />
            <path
               style="opacity:1;fill:#ff0000;fill-opacity:0.69411765;fill-rule:nonzero;stroke:none;stroke-width:2;stroke-linecap:round;stroke-linejoin:miter;stroke-miterlimit:0;stroke-dasharray:none;stroke-dashoffset:0;stroke-opacity:0.69411765"
               d="m 1846.171,415.46661 147.3673,0 c 7.6388,0 13.7885,5.75046 13.7885,12.8934 0,7.14294 -6.1497,12.8934 -13.7885,12.8934 l -147.3673,0 c -7.6389,0 -13.7886,-5.75046 -13.7886,-12.8934 0,-7.14294 6.1497,-12.8934 13.7886,-12.8934 z"
               id="rect4230"
               inkscape:connector-curvature="0" />
            <path
               style="opacity:1;fill:none;fill-opacity:1;fill-rule:nonzero;stroke:#ff0000;stroke-width:25;stroke-linecap:round;stroke-linejoin:miter;stroke-miterlimit:4;stroke-dasharray:none;stroke-dashoffset:0;stroke-opacity:0.69411765"
               d="m 1920.0315,-482.99064 a 259.19108,259.19108 0 0 0 -259.1911,259.191 259.19108,259.19108 0 0 0 78.0439,184.932277 c -0.084,0.0508 -0.1524,0.0933 -0.2364,0.14389 a 167.22005,167.22005 0 0 1 44.0932,112.894387 167.22005,167.22005 0 0 1 -0.3186,6.36763 l 0,189.595586 c 0,5.20681 4.1918,9.39868 9.3987,9.39868 l 256.4215,0 c 5.2069,0 9.3987,-4.19187 9.3987,-9.39868 l 0,-188.534156 a 167.22005,167.22005 0 0 1 -0.2635,-7.42906 167.22005,167.22005 0 0 1 44.3931,-113.168147 l -0.2027,-0.20556 a 259.19108,259.19108 0 0 0 77.6542,-184.596847 259.19108,259.19108 0 0 0 -259.191,-259.191 z"
               id="path4190"
               inkscape:connector-curvature="0"
               clip-path="none" />
            <path
               style="fill:none;fill-rule:evenodd;stroke:#ff0000;stroke-width:15;stroke-linecap:butt;stroke-linejoin:miter;stroke-miterlimit:4;stroke-dasharray:none;stroke-opacity:0.69411765"
               d="m 1860.6109,267.12248 -1.4275,-276.0804142 -68.5975,-116.1086058 -0.9788,-81.27601 -52.3658,-1.72012 104.7316,0 20.9394,44.29328 20.9393,-89.44662 20.9393,134.16992 20.9394,-218.45616 20.9393,266.619727 20.9393,-170.292597 20.9394,33.11245 114.5196,0 -57.2598,0 -1.4682,82.99613 -63.2142,116.1086058 1.6313,276.0804142"
               id="path4248"
               inkscape:connector-curvature="0"
               sodipodi:nodetypes="cccccccccccccccccc" />
          </g>
        </g>
      </g>
      <g
         transform="translate(-14.189972,20.098993)"
         style="font-style:normal;font-variant:normal;font-weight:normal;font-stretch:normal;font-size:50px;line-height:125%;font-family:'DejaVu Sans';-inkscape-font-specification:'DejaVu Sans, Normal';text-align:center;letter-spacing:0px;word-spacing:0px;writing-mode:lr-tb;text-anchor:middle;fill:#000000;fill-opacity:1;stroke:none;stroke-width:1px;stroke-linecap:butt;stroke-linejoin:miter;stroke-opacity:1"
         id="flowRoot4162">
        <path
           d="m 271.65137,550.53472 4.49218,0 0,27.34375 -4.49218,0 0,-27.34375 z m 0,-10.64453 4.49218,0 0,5.68848 -4.49218,0 0,-5.68848 z"
           style="font-style:normal;font-variant:normal;font-weight:normal;font-stretch:normal;font-size:50px;line-height:125%;font-family:'DejaVu Sans';-inkscape-font-specification:'DejaVu Sans, Normal';text-align:center;writing-mode:lr-tb;text-anchor:middle;fill:#ffffff"
           id="path4319"
           inkscape:connector-curvature="0" />
        <path
           d="m 308.24805,561.37457 0,16.5039 -4.49219,0 0,-16.35742 q 0,-3.88183 -1.51367,-5.81055 -1.51367,-1.92871 -4.54102,-1.92871 -3.63769,0 -5.7373,2.31934 -2.09961,2.31934 -2.09961,6.32324 l 0,15.4541 -4.5166,0 0,-27.34375 4.5166,0 0,4.24805 q 1.61133,-2.46582 3.78418,-3.68652 2.19726,-1.22071 5.05371,-1.22071 4.71191,0 7.1289,2.92969 2.417,2.90527 2.417,8.56934 z"
           style="font-style:normal;font-variant:normal;font-weight:normal;font-stretch:normal;font-size:50px;line-height:125%;font-family:'DejaVu Sans';-inkscape-font-specification:'DejaVu Sans, Normal';text-align:center;writing-mode:lr-tb;text-anchor:middle;fill:#ffffff"
           id="path4321"
           inkscape:connector-curvature="0" />
        <path
           d="m 339.98633,561.37457 0,16.5039 -4.49219,0 0,-16.35742 q 0,-3.88183 -1.51367,-5.81055 -1.51367,-1.92871 -4.54102,-1.92871 -3.63769,0 -5.7373,2.31934 -2.09961,2.31934 -2.09961,6.32324 l 0,15.4541 -4.5166,0 0,-27.34375 4.5166,0 0,4.24805 q 1.61133,-2.46582 3.78418,-3.68652 2.19726,-1.22071 5.05371,-1.22071 4.71191,0 7.12891,2.92969 2.41699,2.90527 2.41699,8.56934 z"
           style="font-style:normal;font-variant:normal;font-weight:normal;font-stretch:normal;font-size:50px;line-height:125%;font-family:'DejaVu Sans';-inkscape-font-specification:'DejaVu Sans, Normal';text-align:center;writing-mode:lr-tb;text-anchor:middle;fill:#ffffff"
           id="path4323"
           inkscape:connector-curvature="0" />
        <path
           d="m 359.59082,553.68414 q -3.61328,0 -5.71289,2.83203 -2.09961,2.80762 -2.09961,7.71484 0,4.90723 2.0752,7.73926 2.0996,2.80762 5.7373,2.80762 3.58887,0 5.68848,-2.83203 2.09961,-2.83203 2.09961,-7.71485 0,-4.8584 -2.09961,-7.69043 -2.09961,-2.85644 -5.68848,-2.85644 z m 0,-3.8086 q 5.85938,0 9.2041,3.8086 3.34473,3.80859 3.34473,10.54687 0,6.71387 -3.34473,10.54688 -3.34472,3.80859 -9.2041,3.80859 -5.88379,0 -9.22852,-3.80859 -3.32031,-3.83301 -3.32031,-10.54688 0,-6.73828 3.32031,-10.54687 3.34473,-3.8086 9.22852,-3.8086 z"
           style="font-style:normal;font-variant:normal;font-weight:normal;font-stretch:normal;font-size:50px;line-height:125%;font-family:'DejaVu Sans';-inkscape-font-specification:'DejaVu Sans, Normal';text-align:center;writing-mode:lr-tb;text-anchor:middle;fill:#ffffff"
           id="path4325"
           inkscape:connector-curvature="0" />
        <path
           d="m 376.33887,550.53472 4.76074,0 8.54492,22.94922 8.54492,-22.94922 4.76075,0 -10.25391,27.34375 -6.10352,0 -10.2539,-27.34375 z"
           style="font-style:normal;font-variant:normal;font-weight:normal;font-stretch:normal;font-size:50px;line-height:125%;font-family:'DejaVu Sans';-inkscape-font-specification:'DejaVu Sans, Normal';text-align:center;writing-mode:lr-tb;text-anchor:middle;fill:#ffffff"
           id="path4327"
           inkscape:connector-curvature="0" />
        <path
           d="m 421.57812,564.13336 q -5.44433,0 -7.54394,1.24511 -2.09961,1.24512 -2.09961,4.24805 0,2.39258 1.5625,3.80859 1.58691,1.39161 4.29688,1.39161 3.73535,0 5.98144,-2.63672 2.27051,-2.66114 2.27051,-7.05567 l 0,-1.00097 -4.46778,0 z m 8.95997,-1.85547 0,15.60058 -4.49219,0 0,-4.15039 q -1.53809,2.49024 -3.83301,3.68653 -2.29492,1.17187 -5.61523,1.17187 -4.19922,0 -6.68946,-2.34375 -2.46582,-2.36816 -2.46582,-6.32324 0,-4.61426 3.07617,-6.95801 3.10059,-2.34375 9.22852,-2.34375 l 6.29883,0 0,-0.43945 q 0,-3.10059 -2.05078,-4.78516 -2.02637,-1.70898 -5.71289,-1.70898 -2.34375,0 -4.56543,0.56152 -2.22168,0.56152 -4.27246,1.68457 l 0,-4.15039 q 2.46582,-0.95215 4.78515,-1.41601 2.31934,-0.48829 4.5166,-0.48829 5.93262,0 8.86231,3.07618 2.92969,3.07617 2.92969,9.32617 z"
           style="font-style:normal;font-variant:normal;font-weight:normal;font-stretch:normal;font-size:50px;line-height:125%;font-family:'DejaVu Sans';-inkscape-font-specification:'DejaVu Sans, Normal';text-align:center;writing-mode:lr-tb;text-anchor:middle;fill:#ffffff"
           id="path4329"
           inkscape:connector-curvature="0" />
        <path
           d="m 444.25879,542.77105 0,7.76367 9.25293,0 0,3.49121 -9.25293,0 0,14.84375 q 0,3.34473 0.90332,4.29688 0.92773,0.95215 3.73535,0.95215 l 4.61426,0 0,3.75976 -4.61426,0 q -5.20019,0 -7.17773,-1.92871 -1.97754,-1.95312 -1.97754,-7.08008 l 0,-14.84375 -3.2959,0 0,-3.49121 3.2959,0 0,-7.76367 4.5166,0 z"
           style="font-style:normal;font-variant:normal;font-weight:normal;font-stretch:normal;font-size:50px;line-height:125%;font-family:'DejaVu Sans';-inkscape-font-specification:'DejaVu Sans, Normal';text-align:center;writing-mode:lr-tb;text-anchor:middle;fill:#ffffff"
           id="path4331"
           inkscape:connector-curvature="0" />
        <path
           d="m 459.44434,550.53472 4.49218,0 0,27.34375 -4.49218,0 0,-27.34375 z m 0,-10.64453 4.49218,0 0,5.68848 -4.49218,0 0,-5.68848 z"
           style="font-style:normal;font-variant:normal;font-weight:normal;font-stretch:normal;font-size:50px;line-height:125%;font-family:'DejaVu Sans';-inkscape-font-specification:'DejaVu Sans, Normal';text-align:center;writing-mode:lr-tb;text-anchor:middle;fill:#ffffff"
           id="path4333"
           inkscape:connector-curvature="0" />
        <path
           d="m 483.90723,553.68414 q -3.61328,0 -5.71289,2.83203 -2.09961,2.80762 -2.09961,7.71484 0,4.90723 2.07519,7.73926 2.09961,2.80762 5.73731,2.80762 3.58886,0 5.68847,-2.83203 2.09961,-2.83203 2.09961,-7.71485 0,-4.8584 -2.09961,-7.69043 -2.09961,-2.85644 -5.68847,-2.85644 z m 0,-3.8086 q 5.85937,0 9.2041,3.8086 3.34472,3.80859 3.34472,10.54687 0,6.71387 -3.34472,10.54688 -3.34473,3.80859 -9.2041,3.80859 -5.88379,0 -9.22852,-3.80859 -3.32031,-3.83301 -3.32031,-10.54688 0,-6.73828 3.32031,-10.54687 3.34473,-3.8086 9.22852,-3.8086 z"
           style="font-style:normal;font-variant:normal;font-weight:normal;font-stretch:normal;font-size:50px;line-height:125%;font-family:'DejaVu Sans';-inkscape-font-specification:'DejaVu Sans, Normal';text-align:center;writing-mode:lr-tb;text-anchor:middle;fill:#ffffff"
           id="path4335"
           inkscape:connector-curvature="0" />
        <path
           d="m 526.60742,561.37457 0,16.5039 -4.49219,0 0,-16.35742 q 0,-3.88183 -1.51367,-5.81055 -1.51367,-1.92871 -4.54101,-1.92871 -3.6377,0 -5.73731,2.31934 -2.09961,2.31934 -2.09961,6.32324 l 0,15.4541 -4.5166,0 0,-27.34375 4.5166,0 0,4.24805 q 1.61133,-2.46582 3.78418,-3.68652 2.19727,-1.22071 5.05371,-1.22071 4.71192,0 7.12891,2.92969 2.41699,2.90527 2.41699,8.56934 z"
           style="font-style:normal;font-variant:normal;font-weight:normal;font-stretch:normal;font-size:50px;line-height:125%;font-family:'DejaVu Sans';-inkscape-font-specification:'DejaVu Sans, Normal';text-align:center;writing-mode:lr-tb;text-anchor:middle;fill:#ffffff"
           id="path4337"
           inkscape:connector-curvature="0" />
      </g>
    </g>
  </g>
</svg>
