<?xml version="1.0" encoding="UTF-8" standalone="no"?>
<!-- Created with Inkscape (http://www.inkscape.org/) -->

<svg
   xmlns:dc="http://purl.org/dc/elements/1.1/"
   xmlns:cc="http://creativecommons.org/ns#"
   xmlns:rdf="http://www.w3.org/1999/02/22-rdf-syntax-ns#"
   xmlns:svg="http://www.w3.org/2000/svg"
   xmlns="http://www.w3.org/2000/svg"
   xmlns:sodipodi="http://sodipodi.sourceforge.net/DTD/sodipodi-0.dtd"
   xmlns:inkscape="http://www.inkscape.org/namespaces/inkscape"
   width="1920"
   height="1080"
   viewBox="0 0 1920 1080"
   id="svg4280"
   version="1.1"
   inkscape:version="0.91 r13725"
   sodipodi:docname="marked_shadow_footprint.svg">
  <defs
     id="defs4282">
    <filter
       inkscape:collect="always"
       style="color-interpolation-filters:sRGB"
       id="filter4276"
       x="-0.060206946"
       width="1.1204139"
       y="-0.070151716"
       height="1.1403034">
      <feGaussianBlur
         inkscape:collect="always"
         stdDeviation="85.779883"
         id="feGaussianBlur4278" />
    </filter>
  </defs>
  <sodipodi:namedview
     id="base"
     pagecolor="#ffffff"
     bordercolor="#666666"
     borderopacity="1.0"
     inkscape:pageopacity="0.0"
     inkscape:pageshadow="2"
     inkscape:zoom="0.92537692"
     inkscape:cx="561.09423"
     inkscape:cy="703.67801"
     inkscape:document-units="px"
     inkscape:current-layer="layer1"
     showgrid="false"
     units="px"
     inkscape:window-width="1634"
     inkscape:window-height="990"
     inkscape:window-x="280"
     inkscape:window-y="31"
     inkscape:window-maximized="1" />
  <metadata
     id="metadata4285">
    <rdf:RDF>
      <cc:Work
         rdf:about="">
        <dc:format>image/svg+xml</dc:format>
        <dc:type
           rdf:resource="http://purl.org/dc/dcmitype/StillImage" />
        <dc:title />
      </cc:Work>
    </rdf:RDF>
  </metadata>
  <g
     inkscape:label="Calque 1"
     inkscape:groupmode="layer"
     id="layer1"
     transform="translate(0,27.637839)">
    <path
       style="opacity:0.71600001;fill:#808080;fill-opacity:1;fill-rule:nonzero;stroke:none;stroke-width:1;stroke-miterlimit:4;stroke-dasharray:none;stroke-dashoffset:0;stroke-opacity:1;filter:url(#filter4276)"
       d="m 1974.174,-269.37729 a 858.91382,858.91382 0 0 0 -1206.31945,-142.3389 858.91382,858.91382 0 0 0 -315.475,812.53727 1381.1612,3286.5075 51.729467 0 1 -1173.8615,1164.62602 1381.1612,3286.5075 51.729467 0 1 -344.02025,254.0193 264.04834,264.04834 0 0 0 -94.6366,47.5439 264.04834,264.04834 0 0 0 -43.7581,370.8487 264.04834,264.04834 0 0 0 370.84885,43.7581 264.04834,264.04834 0 0 0 67.2165,-79.4905 1381.1612,3286.5075 51.729467 0 1 328.3284,-276.7195 1381.1612,3286.5075 51.729467 0 1 1406.2309,-871.3422 858.91382,858.91382 0 0 0 863.10725,-117.12272 858.91382,858.91382 0 0 0 142.339,-1206.31947 z"
       id="path3402"
       inkscape:connector-curvature="0"
       inkscape:transform-center-y="-382.55638"
       inkscape:transform-center-x="-459.61203"
       transform="matrix(0.31792713,0,0,0.31792713,1109.154,247.92854)" />
  </g>
</svg>
