<?xml version="1.0" encoding="UTF-8" standalone="no"?>
<!-- Created with Inkscape (http://www.inkscape.org/) -->

<svg
   xmlns:dc="http://purl.org/dc/elements/1.1/"
   xmlns:cc="http://creativecommons.org/ns#"
   xmlns:rdf="http://www.w3.org/1999/02/22-rdf-syntax-ns#"
   xmlns:svg="http://www.w3.org/2000/svg"
   xmlns="http://www.w3.org/2000/svg"
   xmlns:sodipodi="http://sodipodi.sourceforge.net/DTD/sodipodi-0.dtd"
   xmlns:inkscape="http://www.inkscape.org/namespaces/inkscape"
   width="210mm"
   height="297mm"
   id="svg7561"
   version="1.1"
   inkscape:version="0.91 r13725"
   sodipodi:docname="wild-turtles_gris_yeuxblanc.svg"
   inkscape:export-filename="/home/jerome/Projects/wild-turtles/logo/wild-turtles.svg_gris.png"
   inkscape:export-xdpi="90"
   inkscape:export-ydpi="90">
  <defs
     id="defs7563" />
  <sodipodi:namedview
     id="base"
     pagecolor="#ffffff"
     bordercolor="#666666"
     borderopacity="1.0"
     inkscape:pageopacity="0.0"
     inkscape:pageshadow="2"
     inkscape:zoom="0.5"
     inkscape:cx="592.85749"
     inkscape:cy="417.8498"
     inkscape:document-units="px"
     inkscape:current-layer="layer1"
     showgrid="false"
     inkscape:window-width="1634"
     inkscape:window-height="990"
     inkscape:window-x="280"
     inkscape:window-y="31"
     inkscape:window-maximized="1"
     showguides="true">
    <sodipodi:guide
       position="0,0"
       orientation="0,744.09448"
       id="guide11323" />
    <sodipodi:guide
       position="744.09448,0"
       orientation="-1052.3622,0"
       id="guide11325" />
    <sodipodi:guide
       position="280,1100"
       orientation="0,-744.09448"
       id="guide11327" />
    <sodipodi:guide
       position="-260,1040"
       orientation="1052.3622,0"
       id="guide11329" />
    <inkscape:grid
       type="xygrid"
       id="grid11331"
       empspacing="5"
       visible="true"
       enabled="true"
       snapvisiblegridlinesonly="true" />
  </sodipodi:namedview>
  <metadata
     id="metadata7566">
    <rdf:RDF>
      <cc:Work
         rdf:about="">
        <dc:format>image/svg+xml</dc:format>
        <dc:type
           rdf:resource="http://purl.org/dc/dcmitype/StillImage" />
        <dc:title />
      </cc:Work>
    </rdf:RDF>
  </metadata>
  <g
     inkscape:label="Calque 1"
     inkscape:groupmode="layer"
     id="layer1">
    <g
       id="g4221">
      <path
         id="circle5858"
         d="M 449.07049,58.572403 A 22.206783,22.206783 0 0 1 426.86371,80.779186 22.206783,22.206783 0 0 1 404.65693,58.572403 22.206783,22.206783 0 0 1 426.86371,36.36562 22.206783,22.206783 0 0 1 449.07049,58.572403 Z"
         style="opacity:1;fill:#ffffff;fill-opacity:1;stroke:none;stroke-width:3.29999995;stroke-linejoin:round;stroke-miterlimit:4;stroke-dasharray:none;stroke-opacity:0.89538461" />
      <path
         id="path5856"
         d="M 327.15091,57.411263 A 22.206783,22.206783 0 0 1 304.94412,79.618046 22.206783,22.206783 0 0 1 282.73734,57.411263 22.206783,22.206783 0 0 1 304.94412,35.204479 22.206783,22.206783 0 0 1 327.15091,57.411263"
         style="opacity:1;fill:#ffffff;fill-opacity:1;stroke:none;stroke-width:3.29999995;stroke-linejoin:round;stroke-miterlimit:4;stroke-dasharray:none;stroke-opacity:0.89538461" />
      <g
         id="text4842"
         style="font-style:normal;font-variant:normal;font-weight:normal;font-stretch:normal;font-size:51.73171997px;line-height:125%;font-family:'Architects Daughter';-inkscape-font-specification:'Architects Daughter';letter-spacing:0px;word-spacing:0px;fill:#ec1212;fill-opacity:1;stroke:none;stroke-width:1px;stroke-linecap:butt;stroke-linejoin:miter;stroke-opacity:1">
        <path
           id="path5863"
           style="font-style:normal;font-variant:normal;font-weight:normal;font-stretch:normal;font-size:103.46343994px;line-height:125%;font-family:'Architects Daughter';-inkscape-font-specification:'Architects Daughter, Normal';text-align:start;writing-mode:lr-tb;text-anchor:start;fill:#ec1212;fill-opacity:1"
           d="m 167.99996,931.81434 q 5.05193,-16.36824 11.72047,-59.8148 6.36543,0 6.66854,3.9405 0.10104,1.21246 0.10104,1.71765 0.10104,0.5052 -0.30311,3.53635 -0.40416,2.93012 -1.21246,8.28516 -0.70727,5.35504 -1.8187,12.42774 -1.11142,7.07269 -2.52596,14.75162 -3.43531,18.08589 -7.0727,30.51363 -3.63738,2.52596 -5.65815,0.80831 -0.90935,-0.90935 -1.61662,-2.42492 -0.70727,-1.61662 -1.61662,-3.63739 -1.3135,-1.71766 -4.84984,-9.09347 -3.53635,-7.37581 -5.7592,-11.72047 -2.12181,-4.34465 -4.14258,-8.08308 -4.64777,-8.38619 -7.77997,-9.80073 -3.63738,5.65815 -12.93293,31.01882 -1.61661,4.4457 -2.93011,8.28516 -1.3135,3.73843 -2.22285,6.06231 l -6.26439,-0.30311 -25.259626,-58.40027 q -0.202077,-0.50519 -0.202077,-1.01038 0,-0.50519 0.303115,-1.01039 0.404154,-0.50519 1.313501,-0.90934 1.717655,-0.60623 3.43531,-0.60623 1.717654,0 2.424924,0.70726 0.808313,0.60624 1.212463,1.61662 0.50519,1.01039 0.80831,2.22285 0.30311,1.21246 1.11142,3.13219 0.90935,1.91973 2.52596,5.65816 1.71766,3.73842 3.63739,7.881 1.91973,4.14258 3.83946,8.28516 1.91974,4.04154 3.63739,7.47685 3.63739,7.57789 4.54673,8.48724 11.72047,-28.89702 14.44851,-34.25206 2.72804,-5.45608 3.43531,-6.66854 1.11142,-1.71766 1.71766,-1.71766 4.34465,0 14.65058,19.3994 2.82908,5.15296 5.254,9.90177 5.96128,11.51839 7.37581,13.33709 z" />
        <path
           id="path5865"
           style="font-style:normal;font-variant:normal;font-weight:normal;font-stretch:normal;font-size:103.46343994px;line-height:125%;font-family:'Architects Daughter';-inkscape-font-specification:'Architects Daughter, Normal';text-align:start;writing-mode:lr-tb;text-anchor:start;fill:#ec1212;fill-opacity:1"
           d="m 200.13021,901.09863 q 1.31351,18.8942 2.22285,43.74968 -0.60623,3.13219 -4.84985,3.13219 -1.11142,0 -2.32388,-0.40415 -1.11143,-0.5052 -1.41454,-1.3135 l 0,-45.16422 6.36542,0 z m -9.39658,-13.74124 q 0,-3.53635 4.14258,-3.53635 2.72804,0 4.4457,1.21246 0.30311,1.11143 0.30311,2.22285 0,1.01039 -0.80831,2.02077 -0.8083,1.01039 -2.42492,1.01039 -1.61662,0 -3.23323,-0.70727 -1.61662,-0.80831 -2.42493,-2.22285 z" />
        <path
           id="path5867"
           style="font-style:normal;font-variant:normal;font-weight:normal;font-stretch:normal;font-size:103.46343994px;line-height:125%;font-family:'Architects Daughter';-inkscape-font-specification:'Architects Daughter, Normal';text-align:start;writing-mode:lr-tb;text-anchor:start;fill:#ec1212;fill-opacity:1"
           d="m 208.61745,909.38379 q -0.20208,-5.45608 -0.40415,-9.6997 -0.20208,-4.34466 -0.30312,-6.36543 0,-2.12181 -1.61662,-10.20489 0.90935,-1.21246 1.71766,-2.32388 0.90935,-1.11143 2.52596,-1.11143 3.53635,0 5.45608,29.80637 1.01039,17.27758 1.01039,34.55517 0,4.64777 -6.46647,4.64777 l -0.80831,-0.10104 q 0,-5.254 -0.30311,-13.43812 -0.30312,-8.18412 -0.50519,-14.24643 -0.10104,-6.06231 -0.30312,-11.51839 z" />
        <path
           id="path5869"
           style="font-style:normal;font-variant:normal;font-weight:normal;font-stretch:normal;font-size:103.46343994px;line-height:125%;font-family:'Architects Daughter';-inkscape-font-specification:'Architects Daughter, Normal';text-align:start;writing-mode:lr-tb;text-anchor:start;fill:#ec1212;fill-opacity:1"
           d="m 270.95821,867.4528 q 0,9.6997 -0.60623,18.99524 -0.5052,9.19451 -1.01039,18.0859 -0.40415,8.79035 -0.40415,18.79316 0,9.90178 1.41454,21.01601 0,2.32389 -0.90935,3.33427 -0.80831,1.01039 -2.82908,1.01039 -4.74881,0 -4.74881,-7.881 l 0,-3.33428 q -14.34747,10.71009 -24.24924,10.71009 -3.9405,0 -8.08308,-1.91973 -4.04154,-1.91974 -7.67893,-7.77997 -0.50519,-2.42492 -0.50519,-4.95089 0,-2.52596 0.90934,-6.06231 1.01039,-3.63739 3.9405,-7.47685 3.03116,-3.83946 7.27478,-6.76958 9.29554,-6.26439 20.10666,-6.26439 4.64777,0 8.89139,1.41454 0,-1.81869 0.20208,-6.36542 0.30311,-4.54674 0.60623,-9.59866 0.60623,-13.13501 0.80831,-15.4589 0.20208,-2.42492 0.50519,-4.04154 0.40415,-1.71765 1.11142,-2.93011 1.51558,-2.52597 5.25401,-2.52597 z m -42.2341,65.27088 q 0,7.98205 5.75919,7.98205 0.90935,0 2.02077,-0.20208 4.14258,0 10.20489,-2.42492 11.51839,-4.54674 14.04436,-7.88101 l 0,-13.43812 q 0,-3.53635 -5.7592,-3.53635 -0.70727,-0.10104 -1.91973,-0.10104 -1.11142,0 -3.53635,0.50519 -2.42492,0.5052 -5.45608,1.8187 -3.03115,1.3135 -5.96127,3.23323 -6.16335,4.14258 -8.48724,9.6997 -0.90934,2.12181 -0.90934,4.34465 z" />
        <path
           id="path5871"
           style="font-style:normal;font-variant:normal;font-weight:normal;font-stretch:normal;font-size:103.46343994px;line-height:125%;font-family:'Architects Daughter';-inkscape-font-specification:'Architects Daughter, Normal';text-align:start;writing-mode:lr-tb;text-anchor:start;fill:#ec1212;fill-opacity:1"
           d="m 364.51987,898.97682 -8.99242,-0.20208 q -3.53635,0 -8.18412,0.70727 -0.20208,3.9405 -0.80831,10.20489 -2.12181,22.22848 -2.12181,28.89702 0,6.5675 0.20208,9.29554 l -9.49762,0.70727 3.13219,-49.91303 -21.5212,-1.21246 q -0.80831,0 -1.3135,-1.3135 -0.40416,-1.3135 -0.40416,-2.42492 0,-1.11143 0.90935,-2.42493 0.90934,-1.3135 2.12181,-1.3135 7.37581,0.30312 14.85266,1.01039 13.84228,1.21246 23.54197,1.21246 l 6.26439,-0.20208 q 7.37581,-0.20207 14.65059,-1.61661 1.61661,0.30311 2.02077,5.05192 0.10103,1.01039 0.10103,1.61662 -6.66854,1.91973 -14.9537,1.91973 z" />
        <path
           id="path5873"
           style="font-style:normal;font-variant:normal;font-weight:normal;font-stretch:normal;font-size:103.46343994px;line-height:125%;font-family:'Architects Daughter';-inkscape-font-specification:'Architects Daughter, Normal';text-align:start;writing-mode:lr-tb;text-anchor:start;fill:#ec1212;fill-opacity:1"
           d="m 381.69643,935.14861 q 0,-1.61662 -0.30311,-4.4457 -0.20208,-2.93011 -0.40416,-6.36542 -0.20207,-3.43531 -0.20207,-6.97166 0,-3.53635 0.60623,-6.46647 1.3135,-6.5675 5.45608,-6.5675 2.82908,0.80831 3.73842,2.02077 1.01039,1.21246 1.01039,3.03116 0,1.71765 -0.90935,4.34465 -3.33427,8.79035 -3.33427,15.86305 0,2.32389 0.30312,4.95089 1.61661,6.76958 11.11423,6.76958 4.95089,0 9.39659,-1.71766 8.48723,-3.13219 11.51839,-7.37581 0.90934,-4.64777 0.90934,-8.08308 0,-3.53635 -0.30311,-6.26439 -0.20208,-2.72804 -0.60623,-5.96127 -0.30312,-3.33427 -0.40416,-7.27477 1.3135,-0.60623 2.52597,-0.60623 1.3135,0 2.627,1.3135 1.41454,1.3135 2.32388,4.95088 1.01039,3.63739 1.3135,8.58828 0.30312,4.84985 0.30312,10.10385 0.10104,5.254 0.10104,10.20489 0,4.84985 0.40415,8.3862 -1.21246,1.11142 -2.32388,1.11142 -4.04155,0 -5.96128,-8.08308 -1.3135,1.11142 -4.44569,2.72804 -6.66854,3.63738 -15.76201,4.84985 -1.71766,0.20207 -3.83946,0.20207 -2.12181,0 -5.35505,-0.8083 -3.13219,-0.80831 -5.96127,-3.73843 -2.82908,-2.93012 -3.53635,-8.68931 z" />
        <path
           id="path5875"
           style="font-style:normal;font-variant:normal;font-weight:normal;font-stretch:normal;font-size:103.46343994px;line-height:125%;font-family:'Architects Daughter';-inkscape-font-specification:'Architects Daughter, Normal';text-align:start;writing-mode:lr-tb;text-anchor:start;fill:#ec1212;fill-opacity:1"
           d="m 484.35155,911.70767 q -4.24362,-3.03115 -10.91216,-3.03115 -6.26439,0 -11.61943,2.32388 -10.10385,4.24362 -13.84228,10.91216 -1.61662,3.03116 -1.61662,6.46647 0,0.60623 0,3.43531 0,2.72804 1.01039,7.47685 1.01039,4.64777 1.01039,9.49762 -2.12181,0.10104 -3.43531,0.50519 -1.31351,0.40415 -2.22285,0.40415 -0.90935,0 -1.61662,-0.8083 -0.60623,-0.80831 -1.41454,-3.1322 -0.10104,-0.60623 -0.40415,-3.43531 -0.30312,-2.82908 -0.80831,-6.87062 -0.40415,-4.04154 -1.01038,-8.79035 -0.5052,-4.84985 -1.01039,-9.49762 -1.11142,-10.10385 -1.71765,-14.85266 0,-2.42492 3.53634,-2.42492 2.12181,0 3.33427,1.81869 1.21247,1.71765 1.91974,4.04154 0.70727,2.22285 0.90934,4.4457 0.30312,2.22284 0.5052,3.13219 13.33708,-11.92255 33.14063,-11.92255 2.22285,0 4.64777,0.10104 0.60623,-0.10104 1.51558,-0.10104 0.90934,0 1.81869,1.21247 1.11143,1.41454 1.11143,3.43531 0,5.05192 -2.82908,5.65815 z" />
        <path
           id="path5877"
           style="font-style:normal;font-variant:normal;font-weight:normal;font-stretch:normal;font-size:103.46343994px;line-height:125%;font-family:'Architects Daughter';-inkscape-font-specification:'Architects Daughter, Normal';text-align:start;writing-mode:lr-tb;text-anchor:start;fill:#ec1212;fill-opacity:1"
           d="m 507.18626,938.88703 0.20207,-16.16616 q 0,-3.83946 -0.70727,-6.5675 l -15.66097,0 -0.20207,-6.97166 15.15577,0 0,-26.06794 q 0.30312,-0.90934 1.21247,-1.81869 1.41454,-1.41454 2.32388,-1.41454 1.01039,0 1.71766,0.20208 0.70727,0.20207 1.51557,1.41454 1.61662,6.66854 1.61662,20.10666 0,3.33427 0.30312,6.5675 3.23323,-0.40415 6.46646,-0.40415 0,0 5.254,0 1.91974,0 3.53635,-0.20208 l -0.30311,7.27478 -14.75163,-0.40416 0.5052,34.85829 q -1.8187,0.80831 -3.1322,0.80831 -5.05192,0 -5.05192,-11.21528 z" />
        <path
           id="path5879"
           style="font-style:normal;font-variant:normal;font-weight:normal;font-stretch:normal;font-size:103.46343994px;line-height:125%;font-family:'Architects Daughter';-inkscape-font-specification:'Architects Daughter, Normal';text-align:start;writing-mode:lr-tb;text-anchor:start;fill:#ec1212;fill-opacity:1"
           d="m 535.57809,909.38379 q -0.20208,-5.45608 -0.40415,-9.6997 -0.20208,-4.34466 -0.30312,-6.36543 0,-2.12181 -1.61662,-10.20489 0.90935,-1.21246 1.71766,-2.32388 0.90935,-1.11143 2.52596,-1.11143 3.53635,0 5.45608,29.80637 1.01039,17.27758 1.01039,34.55517 0,4.64777 -6.46647,4.64777 l -0.80831,-0.10104 q 0,-5.254 -0.30311,-13.43812 -0.30312,-8.18412 -0.50519,-14.24643 -0.10104,-6.06231 -0.30312,-11.51839 z" />
        <path
           id="path5881"
           style="font-style:normal;font-variant:normal;font-weight:normal;font-stretch:normal;font-size:103.46343994px;line-height:125%;font-family:'Architects Daughter';-inkscape-font-specification:'Architects Daughter, Normal';text-align:start;writing-mode:lr-tb;text-anchor:start;fill:#ec1212;fill-opacity:1"
           d="m 570.73948,941.51403 q 8.89139,0 26.77521,-8.08308 1.11142,0 1.81869,0.80831 0.70727,0.70727 0.70727,1.71766 -4.04154,6.87062 -15.45889,10.71008 -11.41736,3.83946 -21.31913,1.3135 -11.21528,-2.93012 -13.6402,-12.62981 -0.20208,-1.91974 -0.20208,-5.15297 0,-3.23323 1.61662,-8.48723 1.71765,-5.35505 5.75919,-10.10386 4.04154,-4.74881 9.49762,-7.47685 5.45608,-2.72804 11.61943,-2.72804 5.86024,0 13.13501,4.04154 3.43531,1.91974 5.45608,4.34466 2.02077,2.42493 2.02077,4.95089 0,0.70727 -0.10104,1.41454 -0.20207,6.16335 -5.96127,7.77996 -2.52596,0.70727 -5.86023,0.70727 l -14.54955,-0.60623 q -7.27477,0 -11.11424,3.1322 -2.22284,1.71765 -3.13219,5.15296 2.52596,9.1945 12.93293,9.1945 z m 17.98485,-31.2209 q -2.22284,-1.61661 -4.64777,-2.32388 -2.42492,-0.70727 -4.04154,-0.70727 -1.61661,0 -5.254,1.11142 -3.63739,1.01039 -6.46647,2.32389 -6.97165,3.23323 -6.97165,6.76958 8.08308,0.70727 12.12462,0.70727 11.21527,0 15.15578,-1.91973 2.42492,-1.01039 2.42492,-2.52597 0,-1.81869 -2.32389,-3.43531 z" />
        <path
           id="path5883"
           style="font-style:normal;font-variant:normal;font-weight:normal;font-stretch:normal;font-size:103.46343994px;line-height:125%;font-family:'Architects Daughter';-inkscape-font-specification:'Architects Daughter, Normal';text-align:start;writing-mode:lr-tb;text-anchor:start;fill:#ec1212;fill-opacity:1"
           d="m 640.65814,922.51879 q 11.11423,0 11.11423,5.65816 0,4.24362 -6.16335,9.90178 -9.1945,8.38619 -24.75443,13.43812 -0.70727,0 -1.61662,-1.41454 -0.80831,-1.41454 -1.3135,-2.12181 -0.40415,-0.80831 -0.60623,-1.01039 11.61943,-3.83946 19.09628,-9.29554 5.05192,-3.63739 5.05192,-5.96127 0,-2.32389 -5.96127,-2.32389 -5.96127,0 -17.47966,2.82908 -5.254,-0.20208 -9.09347,-3.73842 -3.33427,-3.1322 -3.33427,-6.26439 0,-3.23323 1.81869,-5.86024 1.8187,-2.72804 4.84985,-5.05192 3.03116,-2.32389 7.0727,-4.24362 9.90177,-4.74881 20.51082,-4.74881 3.13219,0 6.06231,0.60623 2.42492,0 2.82908,2.12181 0.40415,2.12181 0.40415,6.97166 -5.96127,-2.72804 -13.43812,-2.72804 -9.29554,0 -15.35786,3.73842 -6.26438,3.63739 -6.46646,9.49762 0,2.82908 4.14258,2.82908 l 7.37581,-0.80831 q 9.49762,-2.02077 15.25682,-2.02077 z" />
      </g>
      <g
         transform="translate(-6.5166952,-89.547564)"
         id="g4774">
        <path
           inkscape:connector-curvature="0"
           id="path4340"
           d="m 456.16612,797.12101 -165.76957,1.2547 -117.93976,-142.96982 -1.0223,-203.4444 116.49383,-144.7442 165.76957,-1.2548 117.93972,142.9698 1.02237,203.4445 z"
           style="fill:#ffff00;fill-opacity:1;stroke:none" />
        <path
           inkscape:connector-curvature="0"
           id="path4419"
           d="m 541.88446,800.28414 6.18742,-51.81992 49.10574,-19.68116 48.20088,41.73998 4.62443,54.2709 -54.38829,10.0801 z"
           style="fill:#00c200;fill-opacity:1;stroke:#00c200;stroke-width:9.09399891;stroke-linecap:round;stroke-linejoin:round;stroke-miterlimit:4;stroke-dasharray:none;stroke-opacity:1" />
        <path
           inkscape:connector-curvature="0"
           id="path4423"
           d="m 541.88446,291.37612 6.18742,51.81999 49.10574,19.68112 48.20088,-41.73995 4.62443,-54.27096 -54.38829,-10.08003 z"
           style="fill:#00c200;fill-opacity:1;stroke:#00c200;stroke-width:9.09399891;stroke-linecap:round;stroke-linejoin:round;stroke-miterlimit:4;stroke-dasharray:none;stroke-opacity:1" />
        <path
           inkscape:connector-curvature="0"
           id="path4425"
           d="m 370.37881,958.15041 -36.47505,-100.2889 76.28699,-0.1211 z"
           style="fill:#00c200;fill-opacity:1;stroke:#00c200;stroke-width:9.09399986;stroke-linecap:round;stroke-linejoin:round;stroke-miterlimit:4;stroke-dasharray:none;stroke-opacity:1" />
        <g
           transform="matrix(0.9118762,0,0,0.9118762,34.537572,76.07296)"
           id="g4427">
          <path
             inkscape:connector-curvature="0"
             style="fill:#00c200;fill-opacity:1;fill-rule:nonzero;stroke:none"
             clip-path="none"
             d="m 372.0625,14.90625 -55.90625,39.4375 c 9.99892,4.748198 15.94152,15.793723 13.8125,27.1875 -2.53608,13.572208 -15.58404,22.50483 -29.15625,19.96875 -3.03212,-0.56658 -5.81857,-1.650924 -8.3125,-3.15625 l -5.90625,64.5625 L 372.0625,202.375 457.5,162.90625 451.46875,96.9375 c -5.52791,4.61941 -12.99063,6.83279 -20.625,5.40625 -13.57221,-2.536079 -22.53608,-15.584042 -20,-29.15625 1.72781,-9.246646 8.35661,-16.340812 16.6875,-19.125 L 372.0625,14.90625 Z"
             id="path4429" />
          <path
             inkscape:connector-curvature="0"
             id="path4431"
             d="m 23.059777,-443.95563 a 25,25 0 0 1 -25,25 25,25 0 0 1 -25,-25 25,25 0 0 1 25,-25 25,25 0 0 1 25,25 z"
             clip-path="none"
             style="fill:none;stroke:#00c200;stroke-width:4.93488026;stroke-linecap:round;stroke-linejoin:round;stroke-miterlimit:4;stroke-dasharray:none;stroke-opacity:1"
             transform="matrix(-0.18367907,0.98298627,-0.98298627,-0.18367906,0,0)" />
          <path
             inkscape:connector-curvature="0"
             id="path4433"
             d="m 45.76737,-312.62811 a 25,25 0 0 1 -25,25 25,25 0 0 1 -24.9999998,-25 25,25 0 0 1 24.9999998,-25 25,25 0 0 1 25,25 z"
             clip-path="none"
             style="fill:none;stroke:#00c200;stroke-width:4.93488026;stroke-linecap:round;stroke-linejoin:round;stroke-miterlimit:4;stroke-dasharray:none;stroke-opacity:1"
             transform="matrix(-0.18367907,0.98298627,-0.98298627,-0.18367906,0,0)" />
        </g>
        <path
           inkscape:connector-curvature="0"
           id="path4435"
           d="m 307.82588,159.8304 a 13.678143,13.678143 0 0 1 -10.93304,-15.95781 13.678143,13.678143 0 0 1 15.95782,-10.93304 13.678143,13.678143 0 0 1 10.93303,15.95781 13.678143,13.678143 0 0 1 -15.95781,10.93304 z"
           style="fill:#241c1c;fill-opacity:1;stroke:none" />
        <path
           inkscape:connector-curvature="0"
           id="path4437"
           d="m 430.47521,160.65149 a 13.678143,13.678143 0 0 1 -10.93304,-15.95782 13.678143,13.678143 0 0 1 15.95782,-10.93304 13.678143,13.678143 0 0 1 10.93304,15.95782 13.678143,13.678143 0 0 1 -15.95782,10.93304 z"
           style="fill:#241c1c;fill-opacity:1;stroke:none" />
        <g
           id="g4614"
           transform="translate(975.24166,-1285.4415)">
          <path
             style="fill:none;stroke:#00c200;stroke-width:13.29399967;stroke-linecap:round;stroke-linejoin:round;stroke-miterlimit:4;stroke-dasharray:none;stroke-opacity:1"
             d="m -570.79705,1742.5994 -63.70687,-0.4863 -45.32539,55.4103 -0.39291,78.8482 44.76974,56.0979 63.70687,0.4863 45.32539,-55.4102 0.39291,-78.8482 z"
             id="path4400"
             inkscape:connector-curvature="0" />
          <path
             style="fill:none;stroke:#00c200;stroke-width:13.29399872;stroke-linecap:round;stroke-linejoin:round;stroke-miterlimit:4;stroke-dasharray:none;stroke-opacity:1"
             d="m -518.35929,1590.7637 -167.04374,-1.2641 -118.84626,144.0314 -1.03022,204.9552 117.38929,145.819 167.04373,1.264 118.84626,-144.0313 1.03023,-204.9552 z"
             id="path4402"
             inkscape:connector-curvature="0" />
          <g
             transform="translate(145.26615,558.40841)"
             id="g4521">
            <path
               style="fill:#00c200;fill-opacity:1;stroke:none"
               d="m -603.26911,1371.7164 a 30.287316,30.287316 0 0 1 30.28732,-30.2873 30.287316,30.287316 0 0 1 30.28731,30.2873 30.287316,30.287316 0 0 1 -30.28731,30.2873 30.287316,30.287316 0 0 1 -30.28732,-30.2873 z"
               id="path4507"
               inkscape:connector-curvature="0" />
            <path
               style="fill:#00c200;fill-opacity:1;stroke:none"
               d="m -702.27274,1312.1187 a 18.237526,18.237525 0 0 1 18.23752,-18.2375 18.237526,18.237525 0 0 1 18.23753,18.2375 18.237526,18.237525 0 0 1 -18.23753,18.2375 18.237526,18.237525 0 0 1 -18.23752,-18.2375 z"
               id="path4509"
               inkscape:connector-curvature="0" />
            <path
               style="fill:#00c200;fill-opacity:1;stroke:#00c200;stroke-width:9.09399986;stroke-linecap:round;stroke-linejoin:round;stroke-miterlimit:4;stroke-dasharray:none;stroke-opacity:1"
               d="m -681.84396,1474.0493 -2.79176,2.1063 -39.05387,-110.943 2.79176,-2.1063 z"
               id="path4511"
               inkscape:connector-curvature="0" />
            <path
               style="fill:#00c200;fill-opacity:1;stroke:none"
               d="m -741.43186,1361.6206 a 18.237526,18.237525 0 0 1 18.23752,-18.2375 18.237526,18.237525 0 0 1 18.23753,18.2375 18.237526,18.237525 0 0 1 -18.23753,18.2375 18.237526,18.237525 0 0 1 -18.23752,-18.2375 z"
               id="path4513"
               inkscape:connector-curvature="0" />
            <path
               style="fill:#00c200;fill-opacity:1;stroke:none"
               d="m -706.87151,1501.0074 a 30.287316,30.287316 0 0 1 30.28732,-30.2873 30.287316,30.287316 0 0 1 30.28731,30.2873 30.287316,30.287316 0 0 1 -30.28731,30.2873 30.287316,30.287316 0 0 1 -30.28732,-30.2873 z"
               id="path4515"
               inkscape:connector-curvature="0" />
            <path
               inkscape:connector-curvature="0"
               id="path4517"
               d="m -565.57305,1358.8718 -0.28182,3.4858 -108.84871,-44.5591 0.28182,-3.4858 z"
               style="fill:#00c200;fill-opacity:1;stroke:#00c200;stroke-width:9.09399986;stroke-linecap:round;stroke-linejoin:round;stroke-miterlimit:4;stroke-dasharray:none;stroke-opacity:1" />
            <path
               style="fill:#00c200;fill-opacity:1;stroke:#00c200;stroke-width:9.09399986;stroke-linecap:round;stroke-linejoin:round;stroke-miterlimit:4;stroke-dasharray:none;stroke-opacity:1"
               d="m -599.15614,1369.6474 0.926,3.3724 -117.52251,-4.6919 -0.926,-3.3724 z"
               id="path4519"
               inkscape:connector-curvature="0" />
          </g>
          <g
             id="g4530"
             transform="matrix(-1,0,0,1,-1353.4276,561.07384)">
            <path
               inkscape:connector-curvature="0"
               id="path4532"
               d="m -603.26911,1371.7164 a 30.287316,30.287316 0 0 1 30.28732,-30.2873 30.287316,30.287316 0 0 1 30.28731,30.2873 30.287316,30.287316 0 0 1 -30.28731,30.2873 30.287316,30.287316 0 0 1 -30.28732,-30.2873 z"
               style="fill:#00c200;fill-opacity:1;stroke:none" />
            <path
               inkscape:connector-curvature="0"
               id="path4534"
               d="m -702.27274,1312.1187 a 18.237526,18.237525 0 0 1 18.23752,-18.2375 18.237526,18.237525 0 0 1 18.23753,18.2375 18.237526,18.237525 0 0 1 -18.23753,18.2375 18.237526,18.237525 0 0 1 -18.23752,-18.2375 z"
               style="fill:#00c200;fill-opacity:1;stroke:none" />
            <path
               inkscape:connector-curvature="0"
               id="path4536"
               d="m -681.84396,1474.0493 -2.79176,2.1063 -39.05387,-110.943 2.79176,-2.1063 z"
               style="fill:#00c200;fill-opacity:1;stroke:#00c200;stroke-width:9.09399986;stroke-linecap:round;stroke-linejoin:round;stroke-miterlimit:4;stroke-dasharray:none;stroke-opacity:1" />
            <path
               inkscape:connector-curvature="0"
               id="path4538"
               d="m -741.43186,1361.6206 a 18.237526,18.237525 0 0 1 18.23752,-18.2375 18.237526,18.237525 0 0 1 18.23753,18.2375 18.237526,18.237525 0 0 1 -18.23753,18.2375 18.237526,18.237525 0 0 1 -18.23752,-18.2375 z"
               style="fill:#00c200;fill-opacity:1;stroke:none" />
            <path
               inkscape:connector-curvature="0"
               id="path4540"
               d="m -706.87151,1501.0074 a 30.287316,30.287316 0 0 1 30.28732,-30.2873 30.287316,30.287316 0 0 1 30.28731,30.2873 30.287316,30.287316 0 0 1 -30.28731,30.2873 30.287316,30.287316 0 0 1 -30.28732,-30.2873 z"
               style="fill:#00c200;fill-opacity:1;stroke:none" />
            <path
               style="fill:#00c200;fill-opacity:1;stroke:#00c200;stroke-width:9.09399986;stroke-linecap:round;stroke-linejoin:round;stroke-miterlimit:4;stroke-dasharray:none;stroke-opacity:1"
               d="m -565.57305,1358.8718 -0.28182,3.4858 -108.84871,-44.5591 0.28182,-3.4858 z"
               id="path4542"
               inkscape:connector-curvature="0" />
            <path
               inkscape:connector-curvature="0"
               id="path4544"
               d="m -599.15614,1369.6474 0.926,3.3724 -117.52251,-4.6919 -0.926,-3.3724 z"
               style="fill:#00c200;fill-opacity:1;stroke:#00c200;stroke-width:9.09399986;stroke-linecap:round;stroke-linejoin:round;stroke-miterlimit:4;stroke-dasharray:none;stroke-opacity:1" />
          </g>
          <g
             transform="matrix(-1,0,0,-1,-1354.7603,3114.3755)"
             id="g4546">
            <path
               style="fill:#00c200;fill-opacity:1;stroke:none"
               d="m -603.26911,1371.7164 a 30.287316,30.287316 0 0 1 30.28732,-30.2873 30.287316,30.287316 0 0 1 30.28731,30.2873 30.287316,30.287316 0 0 1 -30.28731,30.2873 30.287316,30.287316 0 0 1 -30.28732,-30.2873 z"
               id="path4548"
               inkscape:connector-curvature="0" />
            <path
               style="fill:#00c200;fill-opacity:1;stroke:none"
               d="m -702.27274,1312.1187 a 18.237526,18.237525 0 0 1 18.23752,-18.2375 18.237526,18.237525 0 0 1 18.23753,18.2375 18.237526,18.237525 0 0 1 -18.23753,18.2375 18.237526,18.237525 0 0 1 -18.23752,-18.2375 z"
               id="path4550"
               inkscape:connector-curvature="0" />
            <path
               style="fill:#00c200;fill-opacity:1;stroke:#00c200;stroke-width:9.09399986;stroke-linecap:round;stroke-linejoin:round;stroke-miterlimit:4;stroke-dasharray:none;stroke-opacity:1"
               d="m -681.84396,1474.0493 -2.79176,2.1063 -39.05387,-110.943 2.79176,-2.1063 z"
               id="path4552"
               inkscape:connector-curvature="0" />
            <path
               style="fill:#00c200;fill-opacity:1;stroke:none"
               d="m -741.43186,1361.6206 a 18.237526,18.237525 0 0 1 18.23752,-18.2375 18.237526,18.237525 0 0 1 18.23753,18.2375 18.237526,18.237525 0 0 1 -18.23753,18.2375 18.237526,18.237525 0 0 1 -18.23752,-18.2375 z"
               id="path4554"
               inkscape:connector-curvature="0" />
            <path
               style="fill:#00c200;fill-opacity:1;stroke:none"
               d="m -706.87151,1501.0074 a 30.287316,30.287316 0 0 1 30.28732,-30.2873 30.287316,30.287316 0 0 1 30.28731,30.2873 30.287316,30.287316 0 0 1 -30.28731,30.2873 30.287316,30.287316 0 0 1 -30.28732,-30.2873 z"
               id="path4556"
               inkscape:connector-curvature="0" />
            <path
               inkscape:connector-curvature="0"
               id="path4558"
               d="m -565.57305,1358.8718 -0.28182,3.4858 -108.84871,-44.5591 0.28182,-3.4858 z"
               style="fill:#00c200;fill-opacity:1;stroke:#00c200;stroke-width:9.09399986;stroke-linecap:round;stroke-linejoin:round;stroke-miterlimit:4;stroke-dasharray:none;stroke-opacity:1" />
            <path
               style="fill:#00c200;fill-opacity:1;stroke:#00c200;stroke-width:9.09399986;stroke-linecap:round;stroke-linejoin:round;stroke-miterlimit:4;stroke-dasharray:none;stroke-opacity:1"
               d="m -599.15614,1369.6474 0.926,3.3724 -117.52251,-4.6919 -0.926,-3.3724 z"
               id="path4560"
               inkscape:connector-curvature="0" />
          </g>
          <g
             id="g4562"
             transform="matrix(1,0,0,-1,145.26619,3115.7083)">
            <path
               inkscape:connector-curvature="0"
               id="path4564"
               d="m -603.26911,1371.7164 a 30.287316,30.287316 0 0 1 30.28732,-30.2873 30.287316,30.287316 0 0 1 30.28731,30.2873 30.287316,30.287316 0 0 1 -30.28731,30.2873 30.287316,30.287316 0 0 1 -30.28732,-30.2873 z"
               style="fill:#00c200;fill-opacity:1;stroke:none" />
            <path
               inkscape:connector-curvature="0"
               id="path4566"
               d="m -702.27274,1312.1187 a 18.237526,18.237525 0 0 1 18.23752,-18.2375 18.237526,18.237525 0 0 1 18.23753,18.2375 18.237526,18.237525 0 0 1 -18.23753,18.2375 18.237526,18.237525 0 0 1 -18.23752,-18.2375 z"
               style="fill:#00c200;fill-opacity:1;stroke:none" />
            <path
               inkscape:connector-curvature="0"
               id="path4568"
               d="m -681.84396,1474.0493 -2.79176,2.1063 -39.05387,-110.943 2.79176,-2.1063 z"
               style="fill:#00c200;fill-opacity:1;stroke:#00c200;stroke-width:9.09399986;stroke-linecap:round;stroke-linejoin:round;stroke-miterlimit:4;stroke-dasharray:none;stroke-opacity:1" />
            <path
               inkscape:connector-curvature="0"
               id="path4570"
               d="m -741.43186,1361.6206 a 18.237526,18.237525 0 0 1 18.23752,-18.2375 18.237526,18.237525 0 0 1 18.23753,18.2375 18.237526,18.237525 0 0 1 -18.23753,18.2375 18.237526,18.237525 0 0 1 -18.23752,-18.2375 z"
               style="fill:#00c200;fill-opacity:1;stroke:none" />
            <path
               inkscape:connector-curvature="0"
               id="path4572"
               d="m -706.87151,1501.0074 a 30.287316,30.287316 0 0 1 30.28732,-30.2873 30.287316,30.287316 0 0 1 30.28731,30.2873 30.287316,30.287316 0 0 1 -30.28731,30.2873 30.287316,30.287316 0 0 1 -30.28732,-30.2873 z"
               style="fill:#00c200;fill-opacity:1;stroke:none" />
            <path
               style="fill:#00c200;fill-opacity:1;stroke:#00c200;stroke-width:9.09399986;stroke-linecap:round;stroke-linejoin:round;stroke-miterlimit:4;stroke-dasharray:none;stroke-opacity:1"
               d="m -565.57305,1358.8718 -0.28182,3.4858 -108.84871,-44.5591 0.28182,-3.4858 z"
               id="path4574"
               inkscape:connector-curvature="0" />
            <path
               inkscape:connector-curvature="0"
               id="path4576"
               d="m -599.15614,1369.6474 0.926,3.3724 -117.52251,-4.6919 -0.926,-3.3724 z"
               style="fill:#00c200;fill-opacity:1;stroke:#00c200;stroke-width:9.09399986;stroke-linecap:round;stroke-linejoin:round;stroke-miterlimit:4;stroke-dasharray:none;stroke-opacity:1" />
          </g>
        </g>
        <path
           style="fill:#00c200;fill-opacity:1;stroke:#00c200;stroke-width:9.09399891;stroke-linecap:round;stroke-linejoin:round;stroke-miterlimit:4;stroke-dasharray:none;stroke-opacity:1"
           d="m 202.21002,800.28411 -6.18742,-51.81989 -49.10573,-19.68116 -48.20088,41.73995 -4.62443,54.2709 54.38829,10.0801 z"
           id="path4674"
           inkscape:connector-curvature="0" />
        <path
           style="fill:#00c200;fill-opacity:1;stroke:#00c200;stroke-width:9.09399891;stroke-linecap:round;stroke-linejoin:round;stroke-miterlimit:4;stroke-dasharray:none;stroke-opacity:1"
           d="m 202.21002,291.37615 -6.18742,51.81999 -49.10573,19.68112 -48.200881,-41.73995 -4.62443,-54.27096 54.388291,-10.08003 z"
           id="path4676"
           inkscape:connector-curvature="0" />
      </g>
      <g
         id="text4850"
         style="font-style:normal;font-variant:normal;font-weight:200;font-stretch:normal;font-size:31.26125145px;line-height:125%;font-family:'DejaVu Sans';-inkscape-font-specification:'DejaVu Sans, Ultra-Light';text-align:start;letter-spacing:0px;word-spacing:0px;writing-mode:lr-tb;text-anchor:start;fill:#333333;fill-opacity:1;stroke:none;stroke-width:1px;stroke-linecap:butt;stroke-linejoin:miter;stroke-opacity:1"
         transform="scale(1.2217419,0.81850349)">
        <path
           id="path5886"
           style=""
           d="m 166.60155,1191.3885 11.55506,0 0,1.267 -10.01337,0 0,8.7464 9.03646,0 0,1.2364 -9.03646,0 0,11.5398 -1.54169,0 0,-22.7896 z" />
        <path
           id="path5888"
           style=""
           d="m 194.03146,1203.4931 q 0.94639,0.3358 1.83172,1.4348 0.62583,0.7938 1.78592,3.0224 l 3.19023,6.2278 -1.63327,0 -3.2513,-6.2584 q -1.26693,-2.4575 -2.42702,-3.2512 -1.19061,-0.7938 -3.22076,-0.7938 l -4.13662,0 0,10.3034 -1.52643,0 0,-22.7896 6.18203,0 q 3.49553,0 5.22039,1.6333 1.72486,1.6333 1.72486,4.9304 0,2.1217 -0.90059,3.5718 -0.8548,1.4196 -2.83916,1.9691 z m -7.8611,-10.8529 0,9.9676 5.03721,0 q 2.44229,0 3.69396,-1.267 1.25167,-1.2669 1.25167,-3.7397 0,-2.4576 -1.25167,-3.7092 -1.25167,-1.2517 -3.69396,-1.2517 l -5.03721,0 z" />
        <path
           id="path5890"
           style=""
           d="m 206.33447,1191.3885 12.88306,0 0,1.267 -11.3261,0 0,8.7464 10.85291,0 0,1.2364 -10.85291,0 0,10.3034 11.60086,0 0,1.2364 -13.15782,0 0,-22.7896 z" />
        <path
           id="path5892"
           style=""
           d="m 226.11699,1191.3885 12.88305,0 0,1.267 -11.3261,0 0,8.7464 10.85291,0 0,1.2364 -10.85291,0 0,10.3034 11.60086,0 0,1.2364 -13.15781,0 0,-22.7896 z" />
        <path
           id="path5894"
           style=""
           d="m 268.59749,1192.5333 0,1.4349 q -1.4959,-0.748 -3.31235,-1.328 -1.19062,-0.3816 -3.00707,-0.4121 -2.68651,-0.046 -4.36558,1.1906 -1.52643,1.1295 -1.52643,3.8771 0,1.6943 1.16008,2.6865 1.23641,1.0533 3.72449,1.6944 l 1.81645,0.4731 q 2.44228,0.6411 3.77028,1.5265 2.48808,1.6943 2.48808,4.2587 0,3.7092 -2.1828,5.1441 -2.38123,1.5417 -4.88457,1.5417 -2.61019,0 -4.67087,-0.7175 -1.29746,-0.5189 -2.71704,-1.4348 l 0,-1.4959 q 2.137,1.2669 2.9918,1.618 1.90803,0.7785 3.54131,0.7785 2.79337,0 4.64034,-1.2364 1.74013,-1.1601 1.74013,-4.0756 0,-1.7096 -1.0685,-2.6865 -1.54169,-1.4196 -3.99924,-2.0149 l -1.83171,-0.4426 q -2.19806,-0.5343 -3.73975,-1.4959 -2.33544,-1.4654 -2.33544,-3.9993 0,-3.1597 1.90804,-4.854 1.77065,-1.5722 5.37302,-1.5875 2.12174,0 3.2513,0.3663 2.90021,0.9464 3.23603,1.1906 z" />
        <path
           id="path5896"
           style=""
           d="m 290.15065,1195.0214 q -2.19805,-2.8544 -5.9378,-2.8544 -3.73975,0 -5.95307,2.8544 -2.19806,2.8544 -2.19806,7.7848 0,4.8998 2.19806,7.7543 2.21332,2.8544 5.95307,2.8544 3.73975,0 5.9378,-2.8544 2.18279,-2.8545 2.18279,-7.7543 0,-4.9304 -2.18279,-7.7848 z m -5.9378,-4.045 q 4.42664,0 7.08262,3.2055 2.65599,3.2208 2.65599,8.6243 0,5.3883 -2.65599,8.5938 -2.65598,3.2208 -7.08262,3.2208 -4.44191,0 -7.11316,-3.2055 -2.65599,-3.2055 -2.65599,-8.6091 0,-5.4035 2.65599,-8.6243 2.67125,-3.2055 7.11316,-3.2055 z" />
        <path
           id="path5898"
           style=""
           d="m 300.31667,1191.3885 11.55506,0 0,1.267 -10.01337,0 0,8.7464 9.03645,0 0,1.2364 -9.03645,0 0,11.5398 -1.54169,0 0,-22.7896 z" />
        <path
           id="path5900"
           style=""
           d="m 314.64983,1191.3885 17.72183,0 0,1.2517 -8.09007,0 0,21.5379 -1.54169,0 0,-21.5379 -8.09007,0 0,-1.2517 z" />
        <path
           id="path5902"
           style=""
           d="m 335.24135,1191.3885 1.57222,0 5.20512,20.9884 5.18986,-20.9884 1.9233,0 5.15933,20.8663 5.18985,-20.8663 1.57222,0 -5.66305,22.7896 -2.18279,0 -5.03721,-20.3015 -5.02195,20.3015 -2.25912,0 -5.64778,-22.7896 z" />
        <path
           id="path5904"
           style=""
           d="m 372.8678,1192.9302 -4.88457,12.822 9.69282,0 -4.80825,-12.822 z m -0.97691,-1.5417 1.99962,0 8.7159,22.7896 -1.74012,0 -2.71705,-7.1589 -10.6392,0 -2.70178,7.1589 -1.61801,0 8.70064,-22.7896 z" />
        <path
           id="path5906"
           style=""
           d="m 396.86325,1203.4931 q 0.94639,0.3358 1.83172,1.4348 0.62583,0.7938 1.78592,3.0224 l 3.19023,6.2278 -1.63327,0 -3.2513,-6.2584 q -1.26693,-2.4575 -2.42702,-3.2512 -1.19061,-0.7938 -3.22076,-0.7938 l -4.13662,0 0,10.3034 -1.52643,0 0,-22.7896 6.18203,0 q 3.49552,0 5.22039,1.6333 1.72486,1.6333 1.72486,4.9304 0,2.1217 -0.90059,3.5718 -0.8548,1.4196 -2.83916,1.9691 z m -7.8611,-10.8529 0,9.9676 5.03721,0 q 2.44229,0 3.69396,-1.267 1.25167,-1.2669 1.25167,-3.7397 0,-2.4576 -1.25167,-3.7092 -1.25167,-1.2517 -3.69396,-1.2517 l -5.03721,0 z" />
        <path
           id="path5908"
           style=""
           d="m 409.16627,1191.3885 12.88305,0 0,1.267 -11.32609,0 0,8.7464 10.8529,0 0,1.2364 -10.8529,0 0,10.3034 11.60085,0 0,1.2364 -13.15781,0 0,-22.7896 z" />
      </g>
    </g>
  </g>
</svg>
